<svg width="40" height="40" viewBox="0 0 40 40" fill="none" xmlns="http://www.w3.org/2000/svg">
<path d="M28.7333 37.9163H11.2667C6.6 37.9163 3.63334 35.133 3.36667 30.483L2.5 16.733C2.36667 14.6497 3.08334 12.6497 4.51667 11.133C5.93334 9.61634 7.93334 8.74967 10 8.74967C10.5333 8.74967 11.05 8.43301 11.3 7.93301L12.5 5.54967C13.4833 3.59967 15.95 2.08301 18.1 2.08301H21.9167C24.0667 2.08301 26.5167 3.59967 27.5 5.53301L28.7 7.96634C28.95 8.43301 29.45 8.74967 30 8.74967C32.0667 8.74967 34.0667 9.61634 35.4833 11.133C36.9167 12.6663 37.6333 14.6497 37.5 16.733L36.6333 30.4997C36.3333 35.2163 33.45 37.9163 28.7333 37.9163ZM18.1 4.58301C16.8667 4.58301 15.3 5.54967 14.7333 6.66634L13.5333 9.06634C12.8333 10.4163 11.4833 11.2497 10 11.2497C8.6 11.2497 7.3 11.8163 6.33334 12.833C5.38334 13.8497 4.9 15.183 5 16.5663L5.86667 30.333C6.06667 33.6997 7.88334 35.4163 11.2667 35.4163H28.7333C32.1 35.4163 33.9167 33.6997 34.1333 30.333L35 16.5663C35.0833 15.183 34.6167 13.8497 33.6667 12.833C32.7 11.8163 31.4 11.2497 30 11.2497C28.5167 11.2497 27.1667 10.4163 26.4667 9.09967L25.25 6.66634C24.7 5.56634 23.1333 4.59967 21.9 4.59967H18.1V4.58301Z" fill="#8349E5"/>
<path d="M22.5 14.583H17.5C16.8167 14.583 16.25 14.0163 16.25 13.333C16.25 12.6497 16.8167 12.083 17.5 12.083H22.5C23.1833 12.083 23.75 12.6497 23.75 13.333C23.75 14.0163 23.1833 14.583 22.5 14.583Z" fill="#8349E5"/>
<path d="M20 31.2503C16.3167 31.2503 13.3333 28.267 13.3333 24.5837C13.3333 20.9003 16.3167 17.917 20 17.917C23.6833 17.917 26.6667 20.9003 26.6667 24.5837C26.6667 28.267 23.6833 31.2503 20 31.2503ZM20 20.417C17.7 20.417 15.8333 22.2837 15.8333 24.5837C15.8333 26.8837 17.7 28.7503 20 28.7503C22.3 28.7503 24.1667 26.8837 24.1667 24.5837C24.1667 22.2837 22.3 20.417 20 20.417Z" fill="#8349E5"/>
</svg>
