<svg width="20" height="20" viewBox="0 0 20 20" fill="none" xmlns="http://www.w3.org/2000/svg">
<path d="M16.6664 9.79173H3.33305C3.14138 9.79173 2.96638 9.7084 2.84972 9.5584C2.73305 9.41673 2.68305 9.21673 2.72472 9.0334L3.66638 4.5334C3.97472 3.07507 4.59972 1.7334 7.07472 1.7334H12.9331C15.4081 1.7334 16.0331 3.0834 16.3414 4.5334L17.2831 9.04173C17.3247 9.22507 17.2747 9.41673 17.1581 9.56673C17.0331 9.7084 16.8581 9.79173 16.6664 9.79173ZM4.09972 8.54173H15.8914L15.1081 4.79173C14.8747 3.70007 14.5997 2.9834 12.9247 2.9834H7.07472C5.39972 2.9834 5.12472 3.70007 4.89138 4.79173L4.09972 8.54173Z" fill="#15161A"/>
<path d="M16.633 18.9582H15.0663C13.7163 18.9582 13.458 18.1832 13.2913 17.6748L13.1247 17.1748C12.908 16.5415 12.883 16.4582 12.133 16.4582H7.86633C7.11633 16.4582 7.06633 16.5998 6.87466 17.1748L6.708 17.6748C6.533 18.1915 6.283 18.9582 4.933 18.9582H3.36633C2.708 18.9582 2.07466 18.6832 1.633 18.1998C1.19966 17.7248 0.991331 17.0915 1.04966 16.4582L1.51633 11.3832C1.64133 10.0082 2.008 8.5415 4.683 8.5415H15.3163C17.9913 8.5415 18.3497 10.0082 18.483 11.3832L18.9497 16.4582C19.008 17.0915 18.7997 17.7248 18.3663 18.1998C17.9247 18.6832 17.2913 18.9582 16.633 18.9582ZM7.86633 15.2082H12.133C13.6497 15.2082 14.008 15.8832 14.308 16.7665L14.483 17.2832C14.6247 17.7082 14.6247 17.7165 15.0747 17.7165H16.6413C16.9497 17.7165 17.2413 17.5915 17.4497 17.3665C17.6497 17.1498 17.7413 16.8748 17.7163 16.5832L17.2497 11.5082C17.1413 10.3832 17.008 9.79984 15.333 9.79984H4.683C2.99966 9.79984 2.86633 10.3832 2.76633 11.5082L2.29966 16.5832C2.27466 16.8748 2.36633 17.1498 2.56633 17.3665C2.76633 17.5915 3.06633 17.7165 3.37466 17.7165H4.94133C5.39133 17.7165 5.39133 17.7082 5.533 17.2915L5.69966 16.7832C5.908 16.1165 6.21633 15.2082 7.86633 15.2082Z" fill="#15161A"/>
<path d="M3.33297 7.2915H2.49963C2.15797 7.2915 1.87463 7.00817 1.87463 6.6665C1.87463 6.32484 2.15797 6.0415 2.49963 6.0415H3.33297C3.67463 6.0415 3.95797 6.32484 3.95797 6.6665C3.95797 7.00817 3.67463 7.2915 3.33297 7.2915Z" fill="#15161A"/>
<path d="M17.4997 7.2915H16.6664C16.3247 7.2915 16.0414 7.00817 16.0414 6.6665C16.0414 6.32484 16.3247 6.0415 16.6664 6.0415H17.4997C17.8414 6.0415 18.1247 6.32484 18.1247 6.6665C18.1247 7.00817 17.8414 7.2915 17.4997 7.2915Z" fill="#15161A"/>
<path d="M9.99963 4.79167C9.65797 4.79167 9.37463 4.50833 9.37463 4.16667V2.5C9.37463 2.15833 9.65797 1.875 9.99963 1.875C10.3413 1.875 10.6246 2.15833 10.6246 2.5V4.16667C10.6246 4.50833 10.3413 4.79167 9.99963 4.79167Z" fill="#15161A"/>
<path d="M11.2496 4.7915H8.74963C8.40797 4.7915 8.12463 4.50817 8.12463 4.1665C8.12463 3.82484 8.40797 3.5415 8.74963 3.5415H11.2496C11.5913 3.5415 11.8746 3.82484 11.8746 4.1665C11.8746 4.50817 11.5913 4.7915 11.2496 4.7915Z" fill="#15161A"/>
<path d="M7.49963 13.125H4.99963C4.65797 13.125 4.37463 12.8417 4.37463 12.5C4.37463 12.1583 4.65797 11.875 4.99963 11.875H7.49963C7.8413 11.875 8.12463 12.1583 8.12463 12.5C8.12463 12.8417 7.8413 13.125 7.49963 13.125Z" fill="#15161A"/>
<path d="M14.9996 13.125H12.4996C12.158 13.125 11.8746 12.8417 11.8746 12.5C11.8746 12.1583 12.158 11.875 12.4996 11.875H14.9996C15.3413 11.875 15.6246 12.1583 15.6246 12.5C15.6246 12.8417 15.3413 13.125 14.9996 13.125Z" fill="#15161A"/>
</svg>
